HIERARCHY
ROOT Hips
{
	OFFSET 0.000000 0.000000 0.000000
	CHANNELS 6 Xposition Yposition Zposition Zrotation Yrotation Xrotation 
	JOINT LHipJoint
	{
		OFFSET 0.000000 0.000000 0.000000
		CHANNELS 3 Zrotation Yrotation Xrotation
		JOINT LeftUpLeg
		{
			OFFSET 8.178360 -10.767780 5.035740
			CHANNELS 3 Zrotation Yrotation Xrotation
			JOINT LeftLeg
			{
				OFFSET 14.688660 -40.356780 0.000000
				CHANNELS 3 Zrotation Yrotation Xrotation
				JOINT LeftFoot
				{
					OFFSET 15.373200 -42.237540 0.000000
					CHANNELS 3 Zrotation Yrotation Xrotation
					JOINT LeftToeBase
					{
						OFFSET 0.945840 -2.598660 13.935300
						CHANNELS 3 Zrotation Yrotation Xrotation
						End Site
						{
							OFFSET 0.000000 0.000000 0.000000
						}
					}
				}
			}
		}
	}
	JOINT RHipJoint
	{
		OFFSET 0.000000 0.000000 0.000000
		CHANNELS 3 Zrotation Yrotation Xrotation
		JOINT RightUpLeg
		{
			OFFSET -7.833120 -10.767780 5.035740
			CHANNELS 3 Zrotation Yrotation Xrotation
			JOINT RightLeg
			{
				OFFSET -15.255180 -41.913300 0.000000
				CHANNELS 3 Zrotation Yrotation Xrotation
				JOINT RightFoot
				{
					OFFSET -15.409560 -42.337380 0.000000
					CHANNELS 3 Zrotation Yrotation Xrotation
					JOINT RightToeBase
					{
						OFFSET -0.988380 -2.715540 14.178900
						CHANNELS 3 Zrotation Yrotation Xrotation
						End Site
						{
							OFFSET 0.000000 0.000000 0.000000
						}
					}
				}
			}
		}
	}
	JOINT LowerBack
	{
		OFFSET 0.000000 0.000000 0.000000
		CHANNELS 3 Zrotation Yrotation Xrotation
		JOINT Spine
		{
			OFFSET 0.169620 12.213540 -1.160280
			CHANNELS 3 Zrotation Yrotation Xrotation
			JOINT Spine1
			{
				OFFSET 0.340320 12.293100 -0.256500
				CHANNELS 3 Zrotation Yrotation Xrotation
				JOINT Neck
				{
					OFFSET 0.000000 0.000000 0.000000
					CHANNELS 3 Zrotation Yrotation Xrotation
					JOINT Neck1
					{
						OFFSET -0.325020 10.477440 1.032120
						CHANNELS 3 Zrotation Yrotation Xrotation
						JOINT Head
						{
							OFFSET 0.624420 10.568160 -0.743820
							CHANNELS 3 Zrotation Yrotation Xrotation
							End Site
							{
								OFFSET 0.000000 0.000000 0.000000
							}
						}
					}
				}
				JOINT LeftShoulder
				{
					OFFSET 0.000000 0.000000 0.000000
					CHANNELS 3 Zrotation Yrotation Xrotation
					JOINT LeftArm
					{
						OFFSET 20.174460 7.205340 -1.867260
						CHANNELS 3 Zrotation Yrotation Xrotation
						JOINT LeftForeArm
						{
							OFFSET 29.898000 -0.000000 -0.000000
							CHANNELS 3 Zrotation Yrotation Xrotation
							JOINT LeftHand
							{
								OFFSET 20.901360 -0.000000 -0.000000
								CHANNELS 3 Zrotation Yrotation Xrotation
								JOINT LeftFingerBase
								{
									OFFSET 0.000000 0.000000 0.000000
									CHANNELS 3 Zrotation Yrotation Xrotation
									JOINT LeftHandIndex1
									{
										OFFSET 4.291560 -0.000000 -0.000000
										CHANNELS 3 Zrotation Yrotation Xrotation
										End Site
										{
											OFFSET 0.000000 0.000000 0.000000
										}
									}
								}
								JOINT LThumb
								{
									OFFSET 0.000000 0.000000 0.000000
									CHANNELS 3 Zrotation Yrotation Xrotation
									End Site
									{
										OFFSET 0.000000 0.000000 0.000000
									}
								}
							}
						}
					}
				}
				JOINT RightShoulder
				{
					OFFSET 0.000000 0.000000 0.000000
					CHANNELS 3 Zrotation Yrotation Xrotation
					JOINT RightArm
					{
						OFFSET -18.819600 8.244300 -2.427900
						CHANNELS 3 Zrotation Yrotation Xrotation
						JOINT RightForeArm
						{
							OFFSET -31.451400 -0.000000 -0.000000
							CHANNELS 3 Zrotation Yrotation Xrotation
							JOINT RightHand
							{
								OFFSET -20.665020 -0.000000 -0.000000
								CHANNELS 3 Zrotation Yrotation Xrotation
								JOINT RightFingerBase
								{
									OFFSET 0.000000 0.000000 0.000000
									CHANNELS 3 Zrotation Yrotation Xrotation
									JOINT RightHandIndex1
									{
										OFFSET -3.735180 -0.000000 -0.000000
										CHANNELS 3 Zrotation Yrotation Xrotation
										End Site
										{
											OFFSET 0.000000 0.000000 0.000000
										}
									}
								}
								JOINT RThumb
								{
									OFFSET 0.000000 0.000000 0.000000
									CHANNELS 3 Zrotation Yrotation Xrotation
									End Site
									{
										OFFSET 0.000000 0.000000 0.000000
									}
								}
							}
						}
					}
				}
			}
		}
	}
}
MOTION
Frames:	4
Frame Time:	0.0333333
-96.841092 107.216040 75.944772 1.492194 32.441959 5.633417 -3.325416 0.782877 1.768867 -14.660962 -6.906889 -15.702175 0.042038 7.991231 23.593486 0.100459 -0.048776 -0.915191 0.018300 -0.872900 -2.399300 1.672843 -0.843513 1.229931 16.768707 7.258127 -12.414457 -2.238138 -9.982384 30.114704 -1.257819 3.689274 -6.687218 -0.006800 -0.530900 1.458700 -5.344034 -2.003691 5.664117 0.214119 -2.958335 0.771821 1.326002 -1.523817 -3.230690 -19.441928 -18.039441 2.212442 8.721444 -24.714281 14.565782 4.048900 -12.508700 11.540800 -7.013056 -0.860834 -1.106493 -81.104422 -3.445295 22.261266 13.749560 -19.330164 -2.805145 -1.659186 -2.092487 8.248459 20.061115 20.852355 8.750700 -7.125000 0.000000 0.000000 -8.155200 54.419000 -1.897000 5.214327 2.158073 -0.432438 86.408661 2.337264 19.651145 -11.857153 17.614600 -1.982677 0.282051 -0.306274 15.234376 -13.275320 8.580617 -2.123000 7.125000 0.000000 0.000000 9.543300 -20.986200 5.568800 
-97.640094 107.294976 75.812808 0.941872 32.666089 5.345778 -3.304449 0.788273 1.694335 -13.751236 -7.917495 -15.853248 0.101983 8.139282 23.977674 -0.037445 0.809648 -1.185228 0.002100 0.298500 0.820200 1.672338 -0.826825 1.244459 17.590922 6.271773 -12.841841 -2.132561 -9.786524 29.533804 -1.307249 4.145195 -6.016837 -0.000400 0.123600 -0.339500 -4.758016 -1.877359 5.998776 0.329910 -2.751292 0.819540 1.224892 -1.428946 -3.339024 -19.488269 -17.948564 1.945950 9.431310 -24.553201 14.199333 4.314200 -12.374200 11.544700 -6.996535 -0.832079 -1.121653 -81.326074 -3.447798 21.508329 13.922014 -19.562718 -2.871911 -1.632207 -2.178450 7.530956 19.951057 21.486913 8.941700 -7.125000 0.000000 0.000000 -8.554700 55.113000 -2.135800 5.240706 2.208661 -0.402703 86.196029 2.822892 18.916694 -11.479098 17.040863 -1.853480 0.258100 -0.302199 15.897649 -12.649618 8.324488 -1.960300 7.125000 0.000000 0.000000 10.018100 -21.273100 5.788100 
-98.484888 107.331732 75.616374 0.892686 33.690452 5.496361 -3.305674 0.747770 1.594560 -13.243734 -8.710218 -16.312273 0.121675 8.186330 24.085637 -0.039823 0.771831 -0.663826 -0.000000 -0.003900 -0.010700 1.659478 -0.800596 1.255986 17.997116 5.131557 -13.612911 -2.082771 -9.684702 29.237215 -1.360987 4.533852 -5.611852 -0.000300 -0.115300 0.316700 -4.532783 -2.030001 6.411856 0.487461 -2.948617 0.859995 1.408657 -1.527122 -3.394797 -19.184683 -17.645109 0.801618 9.382855 -23.929399 14.372217 4.268800 -12.006000 11.692900 -6.980179 -0.832863 -1.144413 -81.712057 -3.460051 21.475579 14.048756 -19.720408 -2.923287 -1.609311 -2.201331 6.784169 20.000260 21.385083 8.932100 -7.125000 0.000000 0.000000 -8.457700 55.022500 -2.092700 5.235186 2.221037 -0.416121 85.594912 3.003964 20.034011 -11.868517 17.639272 -1.989054 0.259004 -0.289409 14.933384 -12.572796 8.443650 -1.972600 7.125000 0.000000 0.000000 10.072600 -21.163600 5.846000 
-99.297144 107.359452 75.403668 0.890476 34.910192 5.552396 -3.316523 0.723899 1.494196 -12.785721 -9.740761 -16.579569 0.129992 8.209270 24.127118 -0.076013 0.929286 -0.157542 0.000200 -0.087800 -0.241300 1.648031 -0.784816 1.256862 18.402397 4.805730 -13.972676 -2.057126 -9.641532 29.122838 -1.237841 3.949061 -5.442683 -0.005600 -0.484000 1.330100 -4.275700 -2.229198 6.821500 0.628470 -3.191223 1.000293 1.551625 -1.657014 -3.229725 -18.602406 -16.866595 -0.643292 9.241505 -22.648112 15.037625 4.270700 -11.316500 11.937300 -6.959856 -0.863422 -1.156242 -81.766748 -3.809479 23.174760 14.095521 -19.767214 -2.954005 -1.550411 -2.216455 6.147453 19.569068 21.201465 8.658900 -7.125000 0.000000 0.000000 -8.864400 54.739800 -2.133300 5.223994 2.228579 -0.434946 84.990739 3.439279 21.442856 -12.531814 18.651077 -2.227480 0.280332 -0.287358 13.266079 -13.036358 8.956527 -2.168900 7.125000 0.000000 0.000000 9.710000 -20.623300 5.749600 
